<svg xmlns="http://www.w3.org/2000/svg" xmlns:xlink="http://www.w3.org/1999/xlink" enable-background="new 0 0 518.3 500" preserveAspectRatio="xMidYMid meet" version="1.0" viewBox="-25.2 -32.4 577.2 565.1" zoomAndPan="magnify" style="fill: rgb(0, 0, 0);" original_string_length="4996"><filter xmlns:xlink="http://www.w3.org/1999/xlink" id="__id0_sdkv7rsxsm" xlink:actuate="onLoad" xlink:show="other" xlink:type="simple"><feGaussianBlur stdDeviation="7"/></filter><g id="__id1_sdkv7rsxsm"><path d="M352.8,487c-4.6,0-9.2-1.2-13.3-3.4c-1.6-0.8-2.9-2.1-4-3.6L198.9,286.9 c-0.2-0.2-0.5-0.4-0.8-0.5c-0.1,0-0.1,0-0.2,0c-0.4,0-0.7,0.1-1,0.3l-35.1,27c-2.1,1.6-4.7,2.5-7.4,2.5c-0.8,0-1.6-0.1-2.5-0.3 c-3.5-0.7-6.5-2.9-8.1-5.9c-19.6-34.3-37.5-70.3-53-107c-21.6-51.1-39.1-104.6-52-158.8c-1.3-5.7,1.3-11.3,6.6-13.8 c1.7-0.8,3.5-1.2,5.4-1.2c3.7,0,7.2,1.8,9.6,4.8l204.5,267.8l112.5,147.4c1.1,1.5,1.9,3.2,2.3,4.8c2.2,10.3-1.8,21-10.1,27.4 C364.6,485.1,358.8,487,352.8,487z M344.8,474.1c2.4,1.3,5.2,2,8,2c3.6,0,7.2-1.2,10.1-3.4c5-3.8,7.4-10.4,6.2-16.6 c0,0-0.1-0.2-0.2-0.4L255.7,307.6L51.8,40.4c-0.3-0.4-0.6-0.6-1-0.6c-0.2,0-0.5,0.1-0.7,0.2c-1.1,0.5-0.9,1.4-0.8,1.7 C62,95.3,79.4,148.2,100.8,198.8c15.2,35.9,32.8,71.5,52.4,105.9c0.1,0.3,0.4,0.5,1,0.6c0.1,0,0.2,0,0.3,0c0.3,0,0.5-0.1,0.8-0.3 l0.1-0.1l35.1-27c2.1-1.6,4.7-2.5,7.4-2.5c0.5,0,1.2,0,1.8,0.1c3.3,0.5,6.2,2.3,8.1,5l136.5,193C344.5,473.8,344.7,474,344.8,474.1 z" filter="url(#__id0_sdkv7rsxsm)" style="fill: rgb(234, 196, 69);"/></g><g id="__id2_sdkv7rsxsm"><path d="M263.2,303l112.5,147.4l0,0c0.9,1.2,1.6,2.6,1.9,4c2,9.5-1.7,19.5-9.4,25.4c-4.5,3.4-9.9,5.2-15.4,5.2 c-4.2,0-8.5-1.1-12.4-3.2c-1.3-0.7-2.4-1.7-3.3-3l-136.5-193c-0.5-0.8-1.4-1.3-2.3-1.4c-0.9-0.1-1.8,0.1-2.6,0.7l-35.1,27 c-2.3,1.8-5.3,2.5-8.2,1.9s-5.4-2.4-6.8-4.9c-19.7-34.4-37.5-70.4-52.9-106.8c-21.6-51.1-39.1-104.5-52-158.6 c-1.1-4.8,1.1-9.4,5.5-11.5c4.5-2.1,9.5-0.9,12.5,3L263.2,303 M257.3,306.4L53.4,39.2c-1.2-1.6-3-1.6-4.2-1 c-0.6,0.3-2.4,1.4-1.9,3.9C60.1,95.9,77.5,148.9,99,199.6c15.3,36.2,33,71.9,52.5,106.1c0.5,0.9,1.3,1.4,2.3,1.6s2,0,2.8-0.7 l35.1-27c1.8-1.4,4-2.1,6.2-2.1c0.5,0,1,0,1.5,0.1c2.8,0.4,5.2,1.9,6.8,4.2l136.5,193c0.3,0.4,0.7,0.8,1,1c6.5,3.6,14.5,3,20.4-1.5 c5.6-4.3,8.3-11.6,6.9-18.6c-0.1-0.4-0.3-0.8-0.6-1.2L257.3,306.4" style="fill: rgb(234, 196, 69);"/></g><g id="__id3_sdkv7rsxsm"><path d="M62.5,485.2c-2.3,0-4.4-0.2-6.5-0.8c-5.9-1.5-11.3-4-15.8-7.6 c-11-8.5-17.3-21.9-17.2-36.7c0.1-7.7,3.6-15.1,9.6-20.3l109.3-95.1c1-0.9,2.3-1.3,3.6-1.3c1.5,0,3,0.6,4,1.8 c2,2.3,1.8,5.6-0.4,7.6l-109.3,95c-3.8,3.2-5.9,7.7-5.9,12.3c-0.1,11.5,4.6,21.8,12.9,28.1c3.5,2.6,7.5,4.5,11.9,5.7 c1.2,0.3,2.6,0.5,3.9,0.5c4.7,0,9.3-2,12.6-5.4l128.2-132.9c1.1-1.1,2.4-1.6,3.9-1.6c1.4,0,2.7,0.5,3.7,1.5 c2.1,2.1,2.2,5.5,0.2,7.6L82.8,476.4C77.4,482.1,70.1,485.2,62.5,485.2z M251.1,268.9c-1.4,0-2.8-0.6-3.9-1.7 c-2.1-2.2-2-5.5,0.1-7.6l61.5-57.8c-6.5-7.8-11.2-16.5-14-26c-6.8-23.7,0.6-43.9,5.6-53.8c1.7-3.4,3.9-6.4,6.6-9.1l97.5-96.6 c1-1,2.4-1.6,3.8-1.6c1.5,0,2.8,0.6,3.8,1.6c2.1,2.1,2.1,5.6,0,7.6l-85.3,84.4l20.5,22l86.4-84.6c1-1,2.3-1.5,3.8-1.5 s2.9,0.6,3.9,1.7c1,1,1.5,2.4,1.5,3.8c0,1.5-0.6,2.8-1.7,3.8l-86.6,84.7l20.5,22.1L464,78.9c1-0.9,2.3-1.4,3.6-1.4 c1.5,0,2.9,0.6,4,1.8c1,1.1,1.5,2.5,1.4,3.9s-0.7,2.8-1.8,3.7l-88.9,81.5l26.7,28.7l85.3-80.4c1-1,2.3-1.5,3.7-1.5 c1.5,0,2.8,0.6,3.9,1.6l0.1,0.1c1.9,2.3,1.8,5.6-0.4,7.6l-97,91.4c-3,2.9-6.5,5.2-10.4,6.8c-9.6,3.9-19.4,5.9-29.1,5.9 c-4.5,0-8.6-0.4-12.6-1.1c-13.5-2.4-26-8.5-36.4-17.8l-61.5,57.9C253.6,268.4,252.4,268.9,251.1,268.9z M320.8,198.8 c9.2,9.3,21,15.4,33.9,17.8c3.5,0.6,7,0.9,10.6,0.9c10.5,0,19.4-2.7,25.1-5c2.8-1.2,5.1-2.7,7.1-4.6l3.7-3.6L319,116l-4.4,4.4 c-1.9,1.9-3.4,4-4.5,6.3c-4.3,8.7-10.6,26.1-4.9,46c2.6,9.1,7.6,17.7,14.3,24.8c0.2,0.1,0.5,0.3,0.8,0.6 C320.6,198.4,320.8,198.6,320.8,198.8z" filter="url(#__id0_sdkv7rsxsm)" style="fill: rgb(234, 196, 69);"/></g><g id="__id4_sdkv7rsxsm"><path d="M62.5,483.2c-2,0-4-0.2-6-0.7c-5.6-1.4-10.7-3.8-15.1-7.2c-10.5-8.1-16.5-20.9-16.4-35.1 c0.1-7.1,3.3-13.9,8.9-18.8l109.3-95.1c1.4-1.2,3.5-1.1,4.8,0.3c1.2,1.4,1.1,3.5-0.3,4.8l-109.3,95c-4.2,3.6-6.6,8.6-6.6,13.8 c-0.1,12.1,4.9,23,13.7,29.7c3.7,2.8,7.9,4.8,12.6,6c6.5,1.6,13.6-0.5,18.4-5.5l128.2-132.9c1.3-1.3,3.4-1.4,4.8-0.1 c1.3,1.3,1.4,3.4,0.1,4.8L81.4,475C76.3,480.3,69.5,483.2,62.5,483.2z M500.4,123l-97,91.4c-2.9,2.8-6.2,4.9-9.8,6.4 c-6.9,2.8-16.7,5.7-28.3,5.7c-3.9,0-8-0.3-12.2-1.1c-14.1-2.5-26.8-9.2-36.8-18.6L253.4,266c-0.7,0.6-1.5,0.9-2.3,0.9 c-0.9,0-1.8-0.4-2.5-1.1c-1.3-1.4-1.2-3.5,0.1-4.8l62.8-59.1c-6.8-7.7-11.9-16.7-14.8-26.7c-6.5-22.8,0.6-42.6,5.5-52.3 c1.6-3.2,3.7-6.1,6.2-8.6l97.5-96.6c1.3-1.3,3.5-1.3,4.8,0s1.3,3.5,0,4.8L324,108.3l23.2,24.9l87.9-86c1.3-1.3,3.5-1.3,4.8,0.1 c1.3,1.3,1.3,3.5-0.1,4.8l-88,86.1l23.2,25l90.4-82.8c1.4-1.3,3.5-1.2,4.8,0.2c1.3,1.4,1.2,3.5-0.2,4.8l-90.4,82.8l29.4,31.7 l86.8-81.8c1.4-1.3,3.5-1.2,4.8,0.1C501.8,119.6,501.8,121.7,500.4,123z M404,204.4l-31.8-34.2l0,0l0,0l-53.1-57.1l-5.9,5.9 c-2,2-3.7,4.3-4.9,6.8c-4.4,8.9-10.9,26.9-5,47.4c2.8,9.8,8.1,18.7,15,25.9c0.2,0.1,0.4,0.2,0.6,0.4s0.2,0.4,0.4,0.6 c9.3,9.4,21.5,16,35.1,18.5c15.2,2.7,28.4-0.8,36.8-4.2c2.8-1.2,5.4-2.8,7.7-5L404,204.4z" style="fill: rgb(234, 196, 69);"/></g></svg>